<svg id="svg" version="1.1" xmlns="http://www.w3.org/2000/svg" xmlns:xlink="http://www.w3.org/1999/xlink" width="400" height="400" viewBox="0, 0, 400,400"><g id="svgg"><path id="path0" d="M170.894 66.006 L 157.218 66.211 152.925 68.726 C 144.459 73.686,142.268 74.968,134.180 79.693 C 129.668 82.328,124.307 85.487,122.266 86.712 C 120.225 87.938,116.357 90.224,113.672 91.791 C 110.986 93.359,106.504 95.992,103.711 97.644 C 99.295 100.254,82.386 110.160,77.949 112.736 C 76.411 113.629,76.409 113.633,77.363 114.006 C 77.890 114.212,80.430 115.197,83.008 116.194 C 95.541 121.042,100.781 123.140,100.781 123.310 C 100.781 123.486,91.126 134.730,86.914 139.459 C 84.941 141.675,78.335 149.374,74.023 154.485 C 72.734 156.012,68.602 160.858,64.840 165.252 C 55.382 176.299,54.297 177.594,54.297 177.829 C 54.297 177.942,63.737 177.941,75.274 177.828 L 96.251 177.621 102.129 171.881 C 105.363 168.724,114.600 159.702,122.656 151.833 L 137.305 137.524 161.165 137.512 L 185.025 137.500 186.319 135.502 C 191.464 127.563,203.740 129.611,206.125 138.807 C 209.209 150.695,194.017 158.345,186.665 148.607 C 184.569 145.831,185.853 145.954,161.466 146.199 L 140.604 146.408 134.086 152.598 C 130.501 156.003,125.013 161.264,121.890 164.289 C 114.067 171.864,110.517 175.194,109.161 176.229 C 108.527 176.713,106.338 178.612,104.297 180.449 C 102.255 182.286,100.209 184.106,99.750 184.494 C 99.021 185.110,97.684 185.242,89.226 185.540 C 79.816 185.872,79.519 185.907,78.872 186.764 C 78.505 187.250,76.482 190.471,74.374 193.921 C 72.267 197.372,68.530 203.359,66.069 207.227 C 62.463 212.892,51.083 231.057,49.856 233.105 C 49.623 233.494,54.890 233.594,75.673 233.594 L 101.783 233.594 104.505 231.349 C 106.002 230.115,112.765 224.270,119.535 218.361 C 126.304 212.452,134.172 205.611,137.019 203.159 L 142.196 198.700 141.949 196.292 C 141.043 187.446,150.244 180.817,157.937 184.774 C 168.870 190.397,164.670 206.365,152.413 205.771 C 150.549 205.680,148.753 205.483,148.422 205.332 C 147.855 205.073,143.620 208.596,119.380 229.492 C 116.639 231.855,113.992 234.003,113.498 234.264 C 113.004 234.525,111.435 235.824,110.011 237.150 L 107.422 239.562 107.426 274.371 C 107.429 293.516,107.536 309.816,107.664 310.593 L 107.898 312.007 114.203 307.699 C 117.671 305.330,123.936 301.011,128.125 298.103 C 135.982 292.649,146.324 285.600,149.872 283.280 C 151.832 281.998,151.884 281.916,151.630 280.530 C 151.485 279.744,151.367 267.764,151.367 253.906 L 151.367 228.711 155.664 228.711 L 159.961 228.711 160.156 259.375 L 160.352 290.039 163.477 294.291 C 165.195 296.630,169.135 301.992,172.232 306.206 C 175.329 310.419,180.148 316.943,182.940 320.703 C 185.732 324.463,189.087 328.987,190.395 330.758 C 192.705 333.883,192.792 333.954,193.421 333.200 C 193.777 332.773,199.030 324.645,205.094 315.138 C 211.157 305.630,217.370 296.006,218.899 293.750 L 221.680 289.648 221.784 267.188 L 221.889 244.727 234.870 231.713 C 242.010 224.555,252.363 214.309,257.877 208.944 L 267.902 199.190 279.166 197.632 C 285.361 196.775,295.615 195.373,301.953 194.516 C 308.291 193.659,314.152 192.828,314.977 192.670 L 316.477 192.383 314.454 189.761 C 313.341 188.319,312.138 187.055,311.781 186.950 C 311.425 186.846,308.320 185.917,304.883 184.884 L 298.633 183.008 261.914 183.121 L 225.195 183.234 205.371 203.041 L 185.547 222.849 185.547 236.191 L 185.547 249.533 186.658 249.920 C 197.334 253.642,193.513 271.256,182.031 271.245 C 170.528 271.234,165.919 257.237,175.252 250.658 L 176.953 249.459 176.953 234.582 L 176.953 219.705 186.035 210.716 C 239.649 157.653,262.243 135.320,262.475 135.156 C 263.753 134.256,263.106 133.626,258.858 131.633 L 254.492 129.586 250.391 133.938 L 246.289 138.291 240.225 138.286 L 234.160 138.281 231.415 135.449 C 229.905 133.892,227.932 131.786,227.030 130.770 L 225.391 128.924 225.391 123.446 L 225.391 117.969 197.168 117.976 L 168.945 117.984 167.180 120.223 C 158.022 131.837,140.386 118.729,149.336 106.960 C 153.957 100.882,163.765 101.097,167.578 107.359 L 168.555 108.963 197.875 108.974 L 227.195 108.984 232.055 110.974 C 241.865 114.992,243.379 115.616,254.688 120.305 C 261.025 122.933,268.145 125.871,270.508 126.834 C 272.871 127.797,275.036 128.776,275.320 129.011 C 275.720 129.342,278.177 127.094,286.371 118.900 L 296.908 108.363 289.125 98.410 L 281.343 88.456 275.730 86.766 C 272.643 85.836,266.514 83.968,262.109 82.614 C 257.705 81.260,249.619 78.801,244.141 77.149 C 238.662 75.497,231.455 73.303,228.125 72.273 C 224.795 71.242,218.531 69.325,214.205 68.012 L 206.339 65.625 195.455 65.713 C 189.468 65.761,178.416 65.893,170.894 66.006 M156.553 110.370 C 155.205 111.107,154.688 112.075,154.688 113.859 C 154.688 116.897,158.381 118.341,160.809 116.252 C 163.908 113.587,160.155 108.399,156.553 110.370 M275.781 141.602 L 251.370 166.016 247.065 166.016 L 242.759 166.016 238.672 170.117 L 234.584 174.219 266.719 174.219 L 298.853 174.219 302.844 175.425 C 305.040 176.089,308.506 177.133,310.547 177.745 C 312.588 178.356,314.923 179.075,315.736 179.342 C 316.941 179.737,318.100 180.912,322.024 185.714 L 326.834 191.602 327.480 197.673 C 327.835 201.012,328.125 205.715,328.125 208.122 C 328.125 213.109,328.217 213.202,330.531 210.578 C 331.464 209.521,334.898 205.767,338.162 202.235 L 344.098 195.814 345.706 188.434 C 346.591 184.376,347.919 178.315,348.657 174.966 C 350.355 167.268,350.557 168.722,346.555 159.816 C 344.660 155.599,341.635 148.781,339.832 144.666 L 336.555 137.184 328.727 132.899 C 324.421 130.543,316.279 126.044,310.634 122.901 C 304.988 119.759,300.329 117.188,300.281 117.188 C 300.233 117.188,289.208 128.174,275.781 141.602 M193.936 138.436 C 190.452 139.954,191.677 145.313,195.508 145.313 C 199.472 145.313,200.548 139.620,196.829 138.324 C 195.327 137.800,195.401 137.797,193.936 138.436 M151.758 191.370 C 150.508 191.905,149.594 193.154,149.349 194.660 C 148.844 197.771,153.373 199.787,155.682 197.479 C 158.351 194.810,155.196 189.898,151.758 191.370 M244.181 234.223 L 230.462 247.743 230.563 268.668 L 230.664 289.593 239.258 293.612 C 255.573 301.241,260.379 303.495,267.773 306.986 C 272.356 309.149,275.237 310.311,275.304 310.023 C 275.364 309.767,271.674 298.573,267.104 285.149 L 258.795 260.742 258.688 240.723 C 258.628 229.706,258.427 220.703,258.240 220.703 C 258.053 220.703,251.726 226.787,244.181 234.223 M179.730 256.795 C 176.382 258.651,177.691 263.672,181.524 263.672 C 182.352 263.672,183.431 263.390,183.922 263.047 C 187.522 260.525,183.588 254.657,179.730 256.795 " stroke="none" fill="#043dec" fill-rule="evenodd"></path><path id="path1" d="M154.307 103.413 C 150.046 104.917,146.901 110.024,147.380 114.663 C 148.465 125.182,162.099 128.130,167.811 119.081 L 168.763 117.573 197.174 117.673 L 225.586 117.773 225.695 123.394 C 225.820 129.869,225.384 128.952,231.148 134.863 L 234.481 138.281 240.185 138.281 L 245.890 138.281 250.191 133.756 L 254.492 129.231 258.652 131.191 C 260.940 132.269,263.137 133.491,263.535 133.906 C 263.932 134.322,264.922 134.876,265.733 135.138 L 267.208 135.614 270.475 132.841 C 274.998 129.000,274.984 129.022,273.388 128.363 C 272.663 128.064,268.379 126.293,263.867 124.429 C 255.563 120.996,253.950 120.323,237.500 113.421 L 228.320 109.570 198.438 109.453 L 168.555 109.336 167.186 107.316 C 164.503 103.357,159.104 101.720,154.307 103.413 M160.968 110.907 C 164.162 114.102,160.583 119.001,156.434 117.111 C 152.781 115.447,154.149 109.766,158.203 109.766 C 159.476 109.766,160.072 110.012,160.968 110.907 M190.740 131.837 C 188.653 132.892,187.030 134.496,185.858 136.661 L 185.193 137.891 161.241 137.891 L 137.289 137.891 124.204 150.684 C 117.007 157.720,108.090 166.403,104.387 169.981 C 100.685 173.558,97.656 176.590,97.656 176.719 C 97.656 177.101,106.897 176.985,107.937 176.589 C 109.230 176.098,114.083 171.562,136.914 149.509 L 140.430 146.113 162.891 146.117 L 185.352 146.122 186.719 148.122 C 192.828 157.058,206.872 152.090,206.164 141.243 C 205.645 133.299,197.579 128.380,190.740 131.837 M197.643 138.470 C 200.984 140.197,199.289 145.703,195.416 145.703 C 193.645 145.703,191.400 143.585,191.420 141.934 C 191.460 138.752,194.700 136.948,197.643 138.470 M149.997 184.326 C 144.830 186.021,142.393 189.508,142.367 195.249 L 142.350 198.896 136.898 203.602 C 133.899 206.189,126.790 212.370,121.101 217.337 C 115.411 222.304,108.856 227.986,106.534 229.964 L 102.312 233.562 105.088 234.405 C 107.930 235.268,109.561 235.250,112.435 234.323 C 113.988 233.821,118.340 230.195,141.230 210.325 C 148.388 204.111,147.538 204.611,149.800 205.292 C 162.296 209.052,169.578 191.882,158.292 185.269 C 156.433 184.179,151.986 183.674,149.997 184.326 M155.889 192.157 C 158.635 194.903,156.094 199.399,152.209 198.670 C 149.819 198.221,148.458 195.782,149.375 193.587 C 150.535 190.813,153.823 190.091,155.889 192.157 M151.563 253.919 C 151.563 282.882,151.129 279.953,156.191 285.195 L 159.737 288.867 159.751 258.887 L 159.766 228.906 155.664 228.906 L 151.563 228.906 151.563 253.919 M176.767 250.025 C 166.230 255.280,170.183 271.094,182.033 271.094 C 191.500 271.094,196.261 259.147,189.545 252.244 C 186.731 249.351,180.342 248.242,176.767 250.025 M183.615 256.652 C 184.611 257.185,185.547 259.052,185.547 260.506 C 185.547 264.360,179.778 265.292,178.053 261.716 C 176.378 258.242,180.157 254.802,183.615 256.652 " stroke="none" fill="#f9fafb" fill-rule="evenodd"></path><path id="path2" d="M0.000 200.000 L 0.000 400.000 200.000 400.000 L 400.000 400.000 400.000 200.000 L 400.000 0.000 200.000 0.000 L 0.000 0.000 0.000 200.000 M213.602 67.819 C 217.615 69.026,223.887 70.944,227.539 72.081 C 231.191 73.218,238.662 75.500,244.141 77.151 C 249.619 78.802,257.705 81.260,262.109 82.614 C 266.514 83.968,272.637 85.828,275.716 86.748 L 281.315 88.420 289.111 98.391 L 296.907 108.361 286.442 118.833 C 280.686 124.592,275.776 129.228,275.532 129.134 C 275.287 129.041,273.354 130.538,271.235 132.461 C 267.457 135.891,267.353 135.954,265.820 135.714 C 264.961 135.580,263.800 135.444,263.241 135.411 C 262.217 135.351,260.179 137.339,186.035 210.716 L 176.953 219.705 176.953 234.625 L 176.953 249.546 178.417 249.142 C 179.255 248.911,181.093 248.848,182.714 248.995 L 185.547 249.251 185.547 236.050 L 185.547 222.849 205.445 202.953 L 225.344 183.057 261.988 183.033 L 298.633 183.008 304.755 184.863 C 308.122 185.884,311.144 186.719,311.471 186.719 C 312.015 186.719,316.595 192.129,316.300 192.424 C 316.229 192.495,305.287 194.049,291.985 195.879 L 267.798 199.205 262.707 204.191 C 259.908 206.932,249.575 217.174,239.746 226.949 L 221.875 244.723 221.869 266.795 C 221.865 283.582,221.748 289.072,221.381 289.722 C 220.305 291.628,194.279 332.118,193.555 333.013 L 192.773 333.978 190.395 330.758 C 189.087 328.988,185.733 324.463,182.942 320.703 C 177.318 313.128,168.567 301.240,163.945 294.898 C 162.292 292.629,160.427 290.394,159.801 289.932 C 159.176 289.469,157.054 287.559,155.087 285.687 L 151.511 282.284 150.340 282.975 C 149.127 283.692,144.029 287.166,130.674 296.377 C 113.164 308.452,107.847 312.014,107.640 311.806 C 107.306 311.473,107.381 239.065,107.715 239.045 C 107.876 239.035,108.918 238.197,110.031 237.183 L 112.054 235.339 109.250 235.472 C 107.070 235.575,105.880 235.405,103.906 234.705 C 101.378 233.808,101.260 233.804,75.504 233.601 L 49.640 233.398 55.990 223.242 C 59.483 217.656,64.186 210.186,66.441 206.641 C 68.697 203.096,72.266 197.372,74.374 193.921 C 76.481 190.471,78.503 187.254,78.866 186.773 C 79.503 185.927,79.854 185.885,89.256 185.516 C 97.527 185.191,99.106 185.033,99.781 184.461 C 102.405 182.241,107.412 177.594,107.301 177.483 C 107.229 177.411,95.332 177.526,80.865 177.740 C 66.398 177.954,54.476 178.044,54.373 177.941 C 54.170 177.737,54.659 177.144,64.840 165.252 C 68.602 160.858,72.734 156.012,74.023 154.485 C 78.335 149.374,84.941 141.675,86.914 139.459 C 91.089 134.771,100.781 123.487,100.781 123.313 C 100.781 123.142,94.703 120.718,82.422 115.990 C 79.521 114.874,77.022 113.848,76.868 113.712 C 76.714 113.575,78.208 112.537,80.188 111.404 C 84.674 108.840,87.314 107.301,94.727 102.928 C 100.072 99.775,111.070 93.304,118.945 88.679 C 120.664 87.669,126.641 84.158,132.227 80.876 C 143.830 74.058,146.923 72.243,152.925 68.726 L 157.218 66.211 170.894 66.006 C 178.416 65.893,189.461 65.761,195.438 65.713 L 206.306 65.625 213.602 67.819 M310.634 122.901 C 316.279 126.044,324.421 130.543,328.727 132.899 L 336.555 137.184 339.832 144.666 C 341.635 148.781,344.660 155.599,346.555 159.816 C 350.670 168.973,350.604 166.034,347.057 182.300 L 344.114 195.796 338.170 202.226 C 334.901 205.763,331.464 209.521,330.531 210.578 C 328.217 213.202,328.125 213.109,328.125 208.122 C 328.125 205.715,327.835 201.012,327.480 197.673 L 326.834 191.602 322.002 185.688 C 319.345 182.435,316.867 179.688,316.495 179.582 C 316.124 179.477,313.711 178.739,311.133 177.943 C 308.555 177.147,304.737 175.983,302.649 175.357 L 298.853 174.219 266.719 174.219 L 234.584 174.219 238.672 170.117 L 242.759 166.016 247.065 166.016 L 251.370 166.016 275.781 141.602 C 289.208 128.174,300.233 117.188,300.281 117.188 C 300.329 117.188,304.988 119.759,310.634 122.901 M267.107 285.145 C 271.676 298.567,275.365 309.760,275.305 310.019 C 275.237 310.313,272.402 309.171,267.773 306.986 C 260.379 303.495,255.573 301.241,239.258 293.612 L 230.664 289.593 230.563 268.667 L 230.462 247.740 244.430 233.979 L 258.398 220.217 258.599 240.480 L 258.800 260.742 267.107 285.145 " stroke="none" fill="none" fill-rule="evenodd"></path><path id="path3" d="M225.542 122.852 C 225.543 125.645,225.605 126.736,225.681 125.277 C 225.756 123.818,225.755 121.532,225.679 120.199 C 225.603 118.865,225.542 120.059,225.542 122.852 M165.796 121.582 L 164.648 122.852 165.918 121.704 C 167.101 120.635,167.367 120.313,167.065 120.313 C 166.998 120.313,166.427 120.884,165.796 121.582 M250.768 133.105 L 248.633 135.352 250.879 133.216 C 252.966 131.233,253.304 130.859,253.014 130.859 C 252.953 130.859,251.942 131.870,250.768 133.105 M263.171 134.098 C 263.036 134.452,263.208 134.770,263.601 134.891 C 263.962 135.002,264.832 135.272,265.535 135.490 C 266.237 135.709,266.719 135.736,266.605 135.552 C 266.491 135.367,265.873 135.101,265.232 134.960 C 264.591 134.820,263.917 134.435,263.732 134.106 C 263.435 133.575,263.372 133.574,263.171 134.098 M232.031 136.133 C 232.760 136.885,233.444 137.500,233.552 137.500 C 233.659 137.500,233.151 136.885,232.422 136.133 C 231.693 135.381,231.009 134.766,230.901 134.766 C 230.794 134.766,231.302 135.381,232.031 136.133 M149.316 137.793 C 155.923 137.853,166.733 137.853,173.340 137.793 C 179.946 137.733,174.541 137.684,161.328 137.684 C 148.115 137.684,142.710 137.733,149.316 137.793 M133.000 141.895 L 129.102 145.898 133.105 142.000 C 136.824 138.378,137.287 137.891,137.004 137.891 C 136.947 137.891,135.145 139.692,133.000 141.895 M191.497 141.797 C 191.497 142.549,191.577 142.856,191.676 142.480 C 191.774 142.104,191.774 141.489,191.676 141.113 C 191.577 140.737,191.497 141.045,191.497 141.797 M131.239 154.980 L 128.711 157.617 131.348 155.089 C 132.798 153.699,133.984 152.513,133.984 152.453 C 133.984 152.165,133.587 152.531,131.239 154.980 M114.445 160.059 L 111.133 163.477 114.551 160.165 C 117.725 157.089,118.147 156.641,117.862 156.641 C 117.804 156.641,116.266 158.179,114.445 160.059 M120.703 165.039 C 119.754 166.006,119.066 166.797,119.173 166.797 C 119.281 166.797,120.145 166.006,121.094 165.039 C 122.043 164.072,122.731 163.281,122.624 163.281 C 122.516 163.281,121.652 164.072,120.703 165.039 M102.330 171.777 L 100.195 174.023 102.441 171.888 C 104.528 169.905,104.866 169.531,104.576 169.531 C 104.515 169.531,103.505 170.542,102.330 171.777 M113.452 171.973 L 112.305 173.242 113.574 172.095 C 114.758 171.025,115.023 170.703,114.722 170.703 C 114.654 170.703,114.083 171.274,113.452 171.973 M101.270 177.240 C 102.290 177.321,103.960 177.321,104.980 177.240 C 106.001 177.160,105.166 177.094,103.125 177.094 C 101.084 177.094,100.249 177.160,101.270 177.240 M141.903 194.922 C 141.903 195.889,141.979 196.284,142.073 195.801 C 142.166 195.317,142.166 194.526,142.073 194.043 C 141.979 193.560,141.903 193.955,141.903 194.922 M153.628 228.805 C 154.871 228.882,156.804 228.882,157.924 228.803 C 159.045 228.724,158.027 228.661,155.664 228.662 C 153.301 228.663,152.384 228.727,153.628 228.805 M103.711 234.375 C 104.785 234.771,106.016 235.100,106.445 235.105 C 106.875 235.110,106.172 234.775,104.883 234.360 C 101.924 233.407,101.117 233.418,103.711 234.375 M180.566 249.097 C 180.942 249.196,181.558 249.196,181.934 249.097 C 182.310 248.999,182.002 248.919,181.250 248.919 C 180.498 248.919,180.190 248.999,180.566 249.097 M170.424 259.961 C 170.427 261.035,170.503 261.428,170.593 260.834 C 170.683 260.241,170.680 259.362,170.587 258.881 C 170.495 258.401,170.421 258.887,170.424 259.961 M192.690 259.961 C 192.693 261.035,192.769 261.428,192.858 260.834 C 192.948 260.241,192.946 259.362,192.853 258.881 C 192.760 258.401,192.687 258.887,192.690 259.961 M172.656 266.919 C 172.656 266.986,173.228 267.558,173.926 268.189 L 175.195 269.336 174.048 268.066 C 172.979 266.883,172.656 266.617,172.656 266.919 M151.578 279.602 C 151.536 280.986,152.952 282.950,156.085 285.855 C 160.094 289.571,160.174 289.602,160.101 287.402 L 160.045 285.742 159.808 287.267 L 159.570 288.792 156.103 285.145 C 154.197 283.139,152.402 280.958,152.115 280.300 C 151.828 279.641,151.586 279.327,151.578 279.602 " stroke="none" fill="#6791e9" fill-rule="evenodd"></path><path id="path4" d="M183.272 109.277 C 191.366 109.336,204.726 109.336,212.959 109.277 C 221.193 109.218,214.570 109.170,198.242 109.170 C 181.914 109.170,175.177 109.218,183.272 109.277 M146.974 113.477 C 146.978 114.336,147.058 114.642,147.151 114.156 C 147.245 113.670,147.241 112.967,147.143 112.593 C 147.046 112.220,146.969 112.617,146.974 113.477 M168.615 117.871 C 168.451 118.137,189.019 118.133,215.430 117.864 C 221.016 117.807,212.808 117.719,197.191 117.669 C 181.574 117.619,168.715 117.710,168.615 117.871 M157.520 124.879 C 157.896 124.977,158.511 124.977,158.887 124.879 C 159.263 124.780,158.955 124.700,158.203 124.700 C 157.451 124.700,157.144 124.780,157.520 124.879 M228.516 132.544 C 228.516 132.611,229.087 133.183,229.785 133.814 L 231.055 134.961 229.907 133.691 C 228.838 132.508,228.516 132.242,228.516 132.544 M248.218 136.035 L 247.070 137.305 248.340 136.157 C 249.038 135.526,249.609 134.955,249.609 134.888 C 249.609 134.586,249.287 134.852,248.218 136.035 M142.676 146.382 C 143.911 146.460,145.933 146.460,147.168 146.382 C 148.403 146.305,147.393 146.241,144.922 146.241 C 142.451 146.241,141.440 146.305,142.676 146.382 M136.511 150.098 L 134.180 152.539 136.621 150.208 C 138.889 148.042,139.241 147.656,138.953 147.656 C 138.892 147.656,137.794 148.755,136.511 150.098 M122.062 152.441 L 118.555 156.055 122.168 152.547 C 125.524 149.290,125.959 148.828,125.675 148.828 C 125.617 148.828,123.991 150.454,122.062 152.441 M127.514 158.691 L 126.367 159.961 127.637 158.814 C 128.335 158.183,128.906 157.611,128.906 157.544 C 128.906 157.242,128.584 157.508,127.514 158.691 M106.824 167.285 L 104.492 169.727 106.934 167.395 C 109.201 165.229,109.554 164.844,109.265 164.844 C 109.205 164.844,108.106 165.942,106.824 167.285 M116.577 169.238 L 115.430 170.508 116.699 169.361 C 117.883 168.291,118.148 167.969,117.847 167.969 C 117.779 167.969,117.208 168.540,116.577 169.238 M110.916 174.512 L 109.570 175.977 111.035 174.630 C 111.841 173.890,112.500 173.231,112.500 173.166 C 112.500 172.867,112.169 173.148,110.916 174.512 M96.875 177.032 C 96.875 177.203,97.490 177.344,98.242 177.344 C 98.994 177.344,99.609 177.275,99.609 177.191 C 99.609 177.107,98.994 176.967,98.242 176.879 C 97.490 176.791,96.875 176.860,96.875 177.032 M234.668 183.088 C 235.151 183.181,235.942 183.181,236.426 183.088 C 236.909 182.995,236.514 182.919,235.547 182.919 C 234.580 182.919,234.185 182.995,234.668 183.088 M242.285 183.082 C 242.661 183.180,243.276 183.180,243.652 183.082 C 244.028 182.984,243.721 182.903,242.969 182.903 C 242.217 182.903,241.909 182.984,242.285 183.082 M247.949 183.100 C 249.077 183.179,250.923 183.179,252.051 183.100 C 253.179 183.022,252.256 182.957,250.000 182.957 C 247.744 182.957,246.821 183.022,247.949 183.100 M256.353 183.093 C 256.947 183.183,257.826 183.180,258.306 183.087 C 258.787 182.995,258.301 182.921,257.227 182.924 C 256.152 182.927,255.759 183.003,256.353 183.093 M159.951 257.422 C 159.951 273.213,159.999 279.673,160.058 271.777 C 160.118 263.882,160.118 250.962,160.058 243.066 C 159.999 235.171,159.951 241.631,159.951 257.422 M151.355 255.273 C 151.355 268.164,151.405 273.381,151.465 266.866 C 151.525 260.352,151.525 249.805,151.465 243.429 C 151.404 237.053,151.355 242.383,151.355 255.273 M101.834 233.372 C 101.191 233.860,101.306 233.966,103.128 234.571 C 104.229 234.937,105.210 235.154,105.310 235.055 C 105.410 234.955,104.693 234.650,103.718 234.377 C 102.287 233.976,102.030 233.777,102.387 233.346 C 102.945 232.674,102.742 232.683,101.834 233.372 M110.352 235.156 C 109.270 235.431,109.255 235.458,110.156 235.495 C 110.693 235.517,111.396 235.365,111.719 235.156 C 112.384 234.727,112.040 234.727,110.352 235.156 M151.744 282.054 C 151.642 282.219,153.447 284.132,155.756 286.306 C 158.064 288.480,160.013 290.078,160.086 289.858 C 160.160 289.637,159.635 288.982,158.919 288.402 C 158.203 287.822,156.337 286.089,154.773 284.551 C 153.209 283.013,151.845 281.889,151.744 282.054 " stroke="none" fill="#4a77df" fill-rule="evenodd"></path></g></svg>
